<?xml version="1.0" encoding="UTF-8"?>
<svg id="Ebene_1" xmlns="http://www.w3.org/2000/svg" version="1.1" viewBox="0 0 892.5 519.1">
  <!-- Generator: Adobe Illustrator 29.8.2, SVG Export Plug-In . SVG Version: 2.1.1 Build 3)  -->
  <defs>
    <style>
      .st0 {
        fill: #cd8a5b;
      }

      .st1 {
        fill: #23221a;
      }
    </style>
  </defs>
  <g>
    <path class="st1" d="M40.6,27.4c0-5.2,3.6-8.7,8.7-8.7h26.2c5.2,0,8.7,3.6,8.7,8.7v209.1c0,5.2-3.6,8.7-8.7,8.7h-26.2c-5.2,0-8.7-3.6-8.7-8.7V27.4Z"/>
    <path class="st1" d="M234.1,27.4c0-5.2,3.6-8.7,8.7-8.7h27.2c4.5,0,9.1,2.9,11.3,6.8l66.7,124.9c2.3,3.9,3.6,3.6,3.6-1V27.4c0-5.2,3.6-8.7,8.7-8.7h26.2c5.2,0,8.7,3.6,8.7,8.7v209.1c0,5.2-3.6,8.7-8.7,8.7h-27.2c-4.5,0-9.1-2.9-11.3-6.8l-66.7-124.9c-2.3-3.9-3.6-3.6-3.6,1v122c0,5.2-3.6,8.7-8.7,8.7h-27.2c-4.5,0-9.1-2.9-11.3-6.8l-66.7-124.9c-2.3-3.9-3.6-3.6-3.6,1v122c0,5.2-3.6,8.7-8.7,8.7h-26.2c-5.2,0-8.7-3.6-8.7-8.7V27.4c0-5.2,3.6-8.7,8.7-8.7h27.2c4.5,0,9.1,2.9,11.3,6.8l66.7,124.9c2.3,3.9,3.6,3.6,3.6-1V27.4Z"/>
    <path class="st1" d="M480.4,140.7c-10,0-15.9,6.8-12.9,15.9,9.4,28.8,34.3,50.5,63.8,50.5s30.1-6.1,41.4-16.2c2.3-1.9,4.9-2.9,7.4-2.9s3.9.6,5.8,1.9l21.4,15.5c4.2,3.2,4.5,7.8,1,11.3-20.1,19.4-47.3,31.7-77,31.7-63.1,0-113.3-53.4-113.3-116.5s50.2-116.5,113.3-116.5,99.4,49.8,99.4,96.8v19.7c0,5.2-3.6,8.7-8.7,8.7h-141.4ZM485.2,103.5h82.5c10.4,0,15.5-7.1,11.7-15.5-7.4-16.8-23-31.1-48.2-31.1s-43,12.9-55,32c-5.2,8.1-1,14.6,9.1,14.6Z"/>
    <path class="st1" d="M762.6,159.8l36.6,77.7c2.3,4.9.3,7.8-4.9,7.8h-28.8c-5.2,0-10.4-2.9-12.6-7.8l-30.1-64.1c-1.9-3.9-5.8-6.1-10.7-6.1h-7.4c-4.5,0-7.8,3.2-7.8,7.8v61.5c0,5.2-3.6,8.7-8.7,8.7h-26.2c-5.2,0-8.7-3.6-8.7-8.7V27.4c0-5.2,3.6-8.7,8.7-8.7h45.3c48.2,0,90.6,34.6,90.6,74.4s-12.6,42.1-32,55.7c-3.9,2.6-5.2,7.1-3.2,11ZM696.9,63.7v58.6c0,4.5,3.2,7.8,7.8,7.8,23.9-.3,47.3-18.1,47.3-36.9s-23.3-36.9-47.3-37.2c-4.5,0-7.8,3.2-7.8,7.8Z"/>
    <path class="st1" d="M280.8,445.6c0,4.5,3.2,7.8,7.8,7.8h71.8c4.5,0,7.4,2.9,6.2,7.4l-6.5,25.6c-1.3,4.5-4.9,7.4-9.4,7.4h-104.9c-5.2,0-8.7-3.6-8.7-8.7v-209.1c0-5.2,3.6-8.7,8.7-8.7h26.2c5.2,0,8.7,3.6,8.7,8.7v169.6Z"/>
    <path class="st1" d="M389.6,276c0-5.2,3.6-8.7,8.7-8.7h26.2c5.2,0,8.7,3.6,8.7,8.7v209.1c0,5.2-3.6,8.7-8.7,8.7h-26.2c-5.2,0-8.7-3.6-8.7-8.7v-209.1Z"/>
    <path class="st1" d="M512.9,362.1c-2.3-3.9-3.6-3.6-3.6,1v122c0,5.2-3.6,8.7-8.7,8.7h-26.2c-5.2,0-8.7-3.6-8.7-8.7v-209.1c0-5.2,3.6-8.7,8.7-8.7h27.2c4.5,0,9.1,2.9,11.3,6.8l66.7,124.9c2.3,3.9,3.6,3.6,3.6-1v-122c0-5.2,3.6-8.7,8.7-8.7h26.2c5.2,0,8.7,3.6,8.7,8.7v209.1c0,5.2-3.6,8.7-8.7,8.7h-27.2c-4.5,0-9.1-2.9-11.3-6.8l-66.7-124.9Z"/>
    <path class="st1" d="M711.9,389.3c-10,0-15.9,6.8-12.9,15.9,9.4,28.8,34.3,50.5,63.8,50.5s30.1-6.1,41.4-16.2c2.3-1.9,4.9-2.9,7.4-2.9s3.9.6,5.8,1.9l21.4,15.5c4.2,3.2,4.5,7.8,1,11.3-20.1,19.4-47.3,31.7-77,31.7-63.1,0-113.3-53.4-113.3-116.5s50.2-116.5,113.3-116.5,99.4,49.8,99.4,96.8v19.7c0,5.2-3.6,8.7-8.7,8.7h-141.4ZM716.8,352.1h82.5c10.4,0,15.5-7.1,11.7-15.5-7.4-16.8-23-31.1-48.2-31.1s-43,12.9-55,32c-5.2,8.1-1,14.6,9.1,14.6Z"/>
  </g>
  <path class="st0" d="M82.6,294.6c24,0,46.9,24.4,63.9,24.4s8.5-2.6,11.1-6.3c8.1-11.4,13.7-15.5,20.3-15.5l14.8-.4c8.5-.4,12.6,6.6,9.6,16.2-7,22.2-18.8,44.3-39.5,44.3s-48-26.2-67.6-26.2-12.2,3.7-15.9,9.6c-7,10.3-13.7,15.9-20.7,15.9l-14.8.4c-8.5.4-11.8-6.3-8.1-15.5,9.6-24,24-46.9,46.9-46.9Z"/>
</svg>