<?xml version="1.0" encoding="UTF-8"?>
<svg id="Ebene_1" xmlns="http://www.w3.org/2000/svg" version="1.1" viewBox="0 0 1200 305.7">
  <!-- Generator: Adobe Illustrator 29.8.2, SVG Export Plug-In . SVG Version: 2.1.1 Build 3)  -->
  <defs>
    <style>
      .st0 {
        fill: #23221a;
      }
    </style>
  </defs>
  <g>
    <path class="st0" d="M43,89.3c0-4.1,2.8-6.9,6.9-6.9h20.8c4.1,0,6.9,2.8,6.9,6.9v166.1c0,4.1-2.8,6.9-6.9,6.9h-20.8c-4.1,0-6.9-2.8-6.9-6.9V89.3Z"/>
    <path class="st0" d="M196.8,89.3c0-4.1,2.8-6.9,6.9-6.9h21.6c3.6,0,7.2,2.3,9,5.4l53,99.2c1.8,3.1,2.8,2.8,2.8-.8v-96.9c0-4.1,2.8-6.9,6.9-6.9h20.8c4.1,0,6.9,2.8,6.9,6.9v166.1c0,4.1-2.8,6.9-6.9,6.9h-21.6c-3.6,0-7.2-2.3-9-5.4l-53-99.2c-1.8-3.1-2.8-2.8-2.8.8v96.9c0,4.1-2.8,6.9-6.9,6.9h-21.6c-3.6,0-7.2-2.3-9-5.4l-53-99.2c-1.8-3.1-2.8-2.8-2.8.8v96.9c0,4.1-2.8,6.9-6.9,6.9h-20.8c-4.1,0-6.9-2.8-6.9-6.9V89.3c0-4.1,2.8-6.9,6.9-6.9h21.6c3.6,0,7.2,2.3,9,5.4l53,99.2c1.8,3.1,2.8,2.8,2.8-.8v-96.9Z"/>
    <path class="st0" d="M392.4,179.3c-8,0-12.6,5.4-10.3,12.6,7.5,22.9,27.2,40.1,50.6,40.1s23.9-4.9,32.9-12.9c1.8-1.5,3.9-2.3,5.9-2.3s3.1.5,4.6,1.5l17,12.3c3.3,2.6,3.6,6.2.8,9-15.9,15.4-37.5,25.2-61.2,25.2-50.1,0-90-42.4-90-92.5s39.8-92.5,90-92.5,78.9,39.6,78.9,76.9v15.7c0,4.1-2.8,6.9-6.9,6.9h-112.3ZM396.2,149.7h65.5c8.2,0,12.3-5.7,9.3-12.3-5.9-13.4-18.3-24.7-38.3-24.7s-34.2,10.3-43.7,25.4c-4.1,6.4-.8,11.6,7.2,11.6Z"/>
    <path class="st0" d="M616.6,194.4l29,61.7c1.8,3.9.3,6.2-3.9,6.2h-22.9c-4.1,0-8.2-2.3-10-6.2l-23.9-50.9c-1.5-3.1-4.6-4.9-8.5-4.9h-5.9c-3.6,0-6.2,2.6-6.2,6.2v48.8c0,4.1-2.8,6.9-6.9,6.9h-20.8c-4.1,0-6.9-2.8-6.9-6.9V89.3c0-4.1,2.8-6.9,6.9-6.9h36c38.3,0,72,27.5,72,59.1s-10,33.4-25.4,44.2c-3.1,2.1-4.1,5.7-2.6,8.7ZM564.4,118.1v46.5c0,3.6,2.6,6.2,6.2,6.2,19-.3,37.5-14.4,37.5-29.3s-18.5-29.3-37.5-29.6c-3.6,0-6.2,2.6-6.2,6.2Z"/>
    <path class="st0" d="M702.9,224c0,3.6,2.6,6.2,6.2,6.2h57.1c3.6,0,5.9,2.3,4.9,5.9l-5.1,20.3c-1,3.6-3.9,5.9-7.5,5.9h-83.3c-4.1,0-6.9-2.8-6.9-6.9V89.3c0-4.1,2.8-6.9,6.9-6.9h20.8c4.1,0,6.9,2.8,6.9,6.9v134.7Z"/>
    <path class="st0" d="M789.3,89.3c0-4.1,2.8-6.9,6.9-6.9h20.8c4.1,0,6.9,2.8,6.9,6.9v166.1c0,4.1-2.8,6.9-6.9,6.9h-20.8c-4.1,0-6.9-2.8-6.9-6.9V89.3Z"/>
    <path class="st0" d="M887.2,157.7c-1.8-3.1-2.8-2.8-2.8.8v96.9c0,4.1-2.8,6.9-6.9,6.9h-20.8c-4.1,0-6.9-2.8-6.9-6.9V89.3c0-4.1,2.8-6.9,6.9-6.9h21.6c3.6,0,7.2,2.3,9,5.4l53,99.2c1.8,3.1,2.8,2.8,2.8-.8v-96.9c0-4.1,2.8-6.9,6.9-6.9h20.8c4.1,0,6.9,2.8,6.9,6.9v166.1c0,4.1-2.8,6.9-6.9,6.9h-21.6c-3.6,0-7.2-2.3-9-5.4l-53-99.2Z"/>
    <path class="st0" d="M1045.3,179.3c-8,0-12.6,5.4-10.3,12.6,7.5,22.9,27.2,40.1,50.6,40.1s23.9-4.9,32.9-12.9c1.8-1.5,3.9-2.3,5.9-2.3s3.1.5,4.6,1.5l17,12.3c3.3,2.6,3.6,6.2.8,9-15.9,15.4-37.5,25.2-61.2,25.2-50.1,0-90-42.4-90-92.5s39.8-92.5,90-92.5,78.9,39.6,78.9,76.9v15.7c0,4.1-2.8,6.9-6.9,6.9h-112.3ZM1049.2,149.7h65.5c8.2,0,12.3-5.7,9.3-12.3-5.9-13.4-18.3-24.7-38.3-24.7s-34.2,10.3-43.7,25.4c-4.1,6.4-.8,11.6,7.2,11.6Z"/>
  </g>
  <path class="st0" d="M813.5,22.1c16.5,0,32.3,16.8,44,16.8s5.8-1.8,7.6-4.3c5.6-7.9,9.4-10.7,14-10.7l10.2-.3c5.8-.3,8.6,4.6,6.6,11.2-4.8,15.3-13,30.5-27.2,30.5s-33.1-18.1-46.5-18.1-8.4,2.5-10.9,6.6c-4.8,7.1-9.4,10.9-14.2,10.9l-10.2.3c-5.8.3-8.1-4.3-5.6-10.7,6.6-16.5,16.5-32.3,32.3-32.3Z"/>
</svg>